<svg width="300" height="164" viewBox="0 0 300 164" fill="none" xmlns="http://www.w3.org/2000/svg">
    <path d="M20.6125 131.817C20.6125 131.876 20.6096 131.97 20.6038 132.099C20.5979 132.222 20.595 132.312 20.595 132.371C20.595 132.764 20.6125 133.18 20.6477 133.619C20.6829 134.059 20.7385 134.542 20.8147 135.069L19.9446 135.219C19.8508 134.346 19.4788 133.669 18.8284 133.188C18.178 132.702 17.3196 132.459 16.2532 132.459C14.8938 132.459 13.8391 132.884 13.0891 133.733C12.345 134.577 11.9729 135.772 11.9729 137.319C11.9729 138.989 12.3948 140.319 13.2385 141.309C14.0881 142.3 15.2219 142.795 16.6399 142.795C17.5305 142.795 18.2893 142.593 18.9163 142.188C19.5491 141.784 20.0618 141.169 20.4543 140.343L21.2278 140.703C20.9934 141.166 20.7883 141.62 20.6125 142.065C20.4368 142.505 20.2874 142.941 20.1643 143.375C19.4553 143.662 18.761 143.879 18.0813 144.025C17.4075 144.178 16.7571 144.254 16.1301 144.254C14.0911 144.254 12.4387 143.65 11.1731 142.443C9.90747 141.236 9.27466 139.66 9.27466 137.715C9.27466 135.793 9.93677 134.211 11.261 132.969C12.5911 131.721 14.2756 131.097 16.3147 131.097C17.0471 131.097 17.7649 131.155 18.468 131.272C19.177 131.39 19.8918 131.571 20.6125 131.817ZM25.4553 137.742C24.8446 137.742 24.3525 137.965 23.9788 138.412C23.6096 138.854 23.425 139.451 23.425 140.203C23.425 141.165 23.6301 141.944 24.0403 142.541C24.455 143.138 24.9928 143.436 25.6536 143.436C26.2916 143.436 26.7997 143.199 27.178 142.725C27.5608 142.252 27.7522 141.607 27.7522 140.791C27.7522 139.898 27.5357 139.166 27.1028 138.597C26.6744 138.027 26.1252 137.742 25.4553 137.742ZM25.6331 137.024C26.5946 137.024 27.3899 137.348 28.0188 137.995C28.6523 138.638 28.969 139.435 28.969 140.388C28.969 141.436 28.6363 142.32 27.9709 143.04C27.3056 143.755 26.4853 144.113 25.51 144.113C24.5347 144.113 23.7327 143.785 23.1038 143.129C22.4794 142.473 22.1672 141.643 22.1672 140.641C22.1672 139.638 22.5068 138.786 23.1858 138.084C23.8694 137.378 24.6851 137.024 25.6331 137.024ZM34.8752 138.316C34.5699 138.143 34.2805 138.016 34.0071 137.934C33.7336 137.851 33.4579 137.81 33.1799 137.81C32.4781 137.81 31.9358 138.029 31.553 138.467C31.1702 138.904 30.9788 139.522 30.9788 140.319C30.9788 141.167 31.1656 141.841 31.5393 142.343C31.9176 142.839 32.4211 143.088 33.05 143.088C33.3007 143.088 33.5696 143.04 33.8567 142.944C34.1484 142.849 34.4742 142.7 34.8342 142.5L34.8752 138.316ZM36.1331 133.333L36.1262 133.456C36.0715 135.074 36.0282 136.637 35.9963 138.145L35.9827 139.212C35.9736 139.462 35.9644 139.797 35.9553 140.217C35.9508 140.631 35.9485 141.089 35.9485 141.591V141.857C35.9485 142.568 35.9736 143.01 36.0237 143.184C36.0738 143.352 36.1718 143.436 36.3176 143.436C36.4042 143.436 36.4931 143.427 36.5842 143.409C36.6799 143.391 36.7779 143.364 36.8782 143.327L36.9875 143.758C36.6685 143.881 36.3564 143.972 36.051 144.031C35.7457 144.095 35.4381 144.127 35.1282 144.127L34.9299 144.12C34.898 143.924 34.873 143.744 34.8547 143.58C34.8411 143.411 34.8342 143.252 34.8342 143.101C34.3147 143.434 33.8863 143.664 33.5491 143.792C33.2118 143.92 32.8837 143.983 32.5647 143.983C31.7672 143.983 31.1178 143.683 30.6165 143.081C30.1152 142.475 29.8645 141.689 29.8645 140.723C29.8645 139.647 30.1858 138.779 30.8284 138.118C31.4709 137.457 32.3049 137.127 33.3303 137.127C33.5627 137.127 33.8066 137.15 34.0618 137.195C34.3215 137.236 34.6018 137.302 34.9026 137.393C34.9026 137.352 34.9049 137.291 34.9094 137.209C34.9322 136.411 34.9436 135.694 34.9436 135.056C34.9436 134.768 34.898 134.566 34.8069 134.447C34.7203 134.329 34.5745 134.269 34.3694 134.269C34.3238 134.269 34.2668 134.276 34.1985 134.29C34.1301 134.299 34.0367 134.315 33.9182 134.338L33.8362 133.893C34.1734 133.834 34.5312 133.759 34.9094 133.668C35.2877 133.572 35.6956 133.461 36.1331 133.333ZM43.6458 140.107H40.3098C40.05 140.107 39.8108 140.112 39.592 140.121C39.3733 140.13 39.1705 140.144 38.9836 140.162V140.415C38.9836 141.308 39.1887 141.999 39.5989 142.486C40.0136 142.974 40.5969 143.218 41.3489 143.218C41.6816 143.218 42.0097 143.163 42.3333 143.054C42.6568 142.94 43.0009 142.764 43.3655 142.527L43.6321 142.965C43.1627 143.348 42.6933 143.637 42.2239 143.833C41.759 144.029 41.2987 144.127 40.843 144.127C39.9589 144.127 39.2297 143.812 38.6555 143.184C38.0813 142.55 37.7942 141.739 37.7942 140.75C37.7942 139.697 38.095 138.813 38.6965 138.098C39.2981 137.382 40.0318 137.024 40.8977 137.024C41.7043 137.024 42.3469 137.293 42.8254 137.831C43.304 138.369 43.5774 139.128 43.6458 140.107ZM42.3811 139.39C42.2444 138.829 42.037 138.401 41.759 138.104C41.481 137.804 41.1484 137.653 40.761 137.653C40.3235 137.653 39.9475 137.829 39.6331 138.18C39.3232 138.531 39.1204 139.004 39.0247 139.601C39.927 139.601 40.6357 139.586 41.1506 139.554C41.6702 139.522 42.0803 139.467 42.3811 139.39Z" fill="#FA0000"/>
    <path d="M56.9963 134.481V134.714C56.9963 135.033 57.0077 135.365 57.0305 135.712C57.0533 136.054 57.0875 136.414 57.1331 136.792L56.634 136.874C56.5429 136.218 56.233 135.707 55.7043 135.343C55.1757 134.974 54.4853 134.789 53.6331 134.789C52.4983 134.789 51.621 135.138 51.0012 135.835C50.386 136.528 50.0784 137.512 50.0784 138.788C50.0784 140.151 50.4316 141.253 51.1379 142.097C51.8489 142.935 52.7694 143.354 53.8997 143.354C54.6106 143.354 55.2258 143.19 55.7454 142.862C56.2694 142.534 56.6773 142.053 56.969 141.42L57.427 141.645C57.2812 141.942 57.149 142.245 57.0305 142.555C56.912 142.86 56.8072 143.168 56.7161 143.477C56.2239 143.701 55.7226 143.869 55.2122 143.983C54.7017 144.097 54.189 144.154 53.6741 144.154C52.1611 144.154 50.9351 143.687 49.9963 142.753C49.0621 141.814 48.595 140.581 48.595 139.055C48.595 137.551 49.0894 136.327 50.0784 135.384C51.0673 134.436 52.3456 133.962 53.9133 133.962C54.3782 133.962 54.8681 134.005 55.3831 134.092C55.9026 134.178 56.4403 134.308 56.9963 134.481ZM60.4827 136.942C60.4508 137.252 60.4257 137.567 60.4075 137.886C60.3892 138.2 60.3756 138.535 60.3665 138.891C60.7356 138.239 61.0751 137.769 61.385 137.482C61.6995 137.195 62.023 137.052 62.3557 137.052C62.6155 137.052 62.8206 137.122 62.9709 137.264C63.1213 137.4 63.1965 137.587 63.1965 137.824C63.1965 137.993 63.1464 138.139 63.0461 138.262C62.9504 138.38 62.8365 138.439 62.7043 138.439C62.6223 138.439 62.4947 138.396 62.3215 138.309C62.1529 138.218 62.0071 138.173 61.884 138.173C61.6471 138.173 61.4101 138.278 61.1731 138.487C60.9361 138.692 60.6877 139.014 60.428 139.451V140.203C60.428 140.932 60.4325 141.525 60.4417 141.98C60.4553 142.432 60.4736 142.719 60.4963 142.842C60.5374 143.074 60.6239 143.234 60.7561 143.32C60.8928 143.407 61.123 143.45 61.4465 143.45H61.6448V143.929C61.2893 143.901 60.9726 143.881 60.6946 143.867C60.4166 143.853 60.1819 143.847 59.9905 143.847C59.7262 143.847 59.4527 143.853 59.1702 143.867C58.8922 143.881 58.6005 143.901 58.2952 143.929V143.45H58.4524C58.7851 143.45 59.0107 143.37 59.1292 143.211C59.2476 143.051 59.3069 142.68 59.3069 142.097V141.379V139.157C59.3069 138.665 59.2727 138.348 59.2043 138.207C59.136 138.066 59.0107 137.995 58.8284 137.995C58.7919 137.995 58.7532 137.997 58.7122 138.002C58.6711 138.002 58.6028 138.009 58.5071 138.022L58.425 137.599C58.7486 137.526 59.0813 137.434 59.4231 137.325C59.7649 137.216 60.1181 137.088 60.4827 136.942ZM69.9573 142.937L70.1487 143.368C69.8069 143.614 69.4947 143.803 69.2122 143.935C68.9296 144.072 68.7017 144.141 68.5286 144.141C68.2369 144.141 68.0181 144.056 67.8723 143.888C67.7265 143.714 67.6467 143.455 67.6331 143.108C67.1363 143.441 66.7239 143.68 66.3958 143.826C66.0676 143.967 65.7737 144.038 65.5139 144.038C65.0536 144.038 64.6685 143.865 64.3586 143.518C64.0487 143.172 63.8938 142.748 63.8938 142.247C63.8938 141.395 64.8121 140.752 66.6487 140.319C67.0816 140.219 67.4189 140.139 67.6604 140.08C67.6604 140.003 67.6627 139.891 67.6672 139.745C67.6809 139.444 67.6877 139.248 67.6877 139.157C67.6877 138.683 67.5898 138.335 67.3938 138.111C67.1978 137.883 66.8993 137.769 66.4983 137.769C66.1064 137.769 65.7965 137.842 65.5686 137.988C65.3453 138.129 65.2336 138.323 65.2336 138.569C65.2336 138.592 65.2359 138.624 65.2405 138.665C65.245 138.701 65.2473 138.729 65.2473 138.747C65.2473 138.888 65.179 139.007 65.0422 139.102C64.9055 139.194 64.7415 139.239 64.55 139.239C64.386 139.239 64.2652 139.212 64.1877 139.157C64.1103 139.102 64.0715 139.018 64.0715 138.904C64.0715 138.54 64.3792 138.134 64.9944 137.687C65.6096 137.236 66.2454 137.011 66.9016 137.011C67.5351 137.011 68.0159 137.186 68.344 137.537C68.6721 137.883 68.8362 138.394 68.8362 139.068C68.8362 139.433 68.8134 139.993 68.7678 140.75C68.7268 141.506 68.7063 142.081 68.7063 142.473C68.7063 142.769 68.7382 142.969 68.802 143.074C68.8704 143.179 68.9889 143.231 69.1575 143.231C69.2304 143.231 69.3238 143.211 69.4377 143.17C69.5562 143.124 69.7294 143.047 69.9573 142.937ZM67.6262 140.627C67.5396 140.65 67.4097 140.684 67.2366 140.729C65.7555 141.135 65.0149 141.614 65.0149 142.165C65.0149 142.466 65.1106 142.712 65.302 142.903C65.4934 143.09 65.7463 143.184 66.0608 143.184C66.2522 143.184 66.4732 143.133 66.7239 143.033C66.9745 142.933 67.2662 142.773 67.5989 142.555L67.6262 140.627ZM72.7053 136.792L72.719 137.359H73.177C73.414 137.359 73.6464 137.357 73.8743 137.352C74.1021 137.343 74.3232 137.334 74.5374 137.325C74.5374 137.343 74.5351 137.373 74.5305 137.414C74.5168 137.706 74.51 137.908 74.51 138.022L74.428 138.016C73.7945 137.984 73.3319 137.968 73.0403 137.968H72.7463C72.7463 138.455 72.7418 138.986 72.7327 139.56C72.7327 139.725 72.7327 139.827 72.7327 139.868C72.7327 140.912 72.7395 141.655 72.7532 142.097C72.7668 142.539 72.7919 142.837 72.8284 142.992C72.8739 143.174 72.9674 143.3 73.1086 143.368C73.2545 143.432 73.5302 143.464 73.9358 143.464V143.929C73.4892 143.901 73.1451 143.883 72.9036 143.874C72.662 143.865 72.4592 143.86 72.2952 143.86C72.1493 143.86 71.9602 143.865 71.7278 143.874C71.4954 143.883 71.1308 143.901 70.634 143.929V143.464H70.8118C71.1262 143.464 71.3381 143.368 71.4475 143.177C71.5569 142.985 71.6116 142.568 71.6116 141.926C71.6116 141.803 71.6093 141.557 71.6047 141.187C71.6002 140.814 71.5979 140.504 71.5979 140.258C71.5979 139.92 71.5956 139.565 71.5911 139.191C71.5911 138.813 71.5888 138.414 71.5842 137.995H71.1331C71.1239 137.995 71.0624 138 70.9485 138.009C70.8391 138.013 70.7343 138.018 70.634 138.022V137.517C70.83 137.507 71.0055 137.48 71.1604 137.434C71.3153 137.389 71.4566 137.323 71.5842 137.236V137.113C71.5842 135.956 71.8577 135.04 72.4045 134.365C72.9514 133.686 73.6943 133.347 74.6331 133.347C75.0614 133.347 75.3941 133.417 75.6311 133.559C75.8726 133.7 75.9934 133.893 75.9934 134.14C75.9934 134.304 75.9456 134.44 75.8499 134.55C75.7587 134.659 75.6471 134.714 75.5149 134.714C75.4329 134.714 75.2187 134.625 74.8723 134.447C74.5305 134.265 74.2502 134.174 74.0315 134.174C73.553 134.174 73.2112 134.356 73.0061 134.721C72.8056 135.085 72.7053 135.732 72.7053 136.662V136.792ZM76.7659 135.924L77.217 136.06C77.1897 136.311 77.1669 136.537 77.1487 136.737C77.135 136.933 77.1259 137.127 77.1213 137.318H77.6067C77.8665 137.318 78.1308 137.316 78.3997 137.311C78.6685 137.302 78.9397 137.291 79.2131 137.277L79.0491 138.022C78.7574 138 78.4817 137.986 78.2219 137.981C77.9667 137.972 77.7115 137.968 77.4563 137.968H77.135C77.1077 138.752 77.0872 139.353 77.0735 139.772C77.0644 140.187 77.0598 140.531 77.0598 140.805C77.0598 141.835 77.1305 142.507 77.2717 142.821C77.413 143.131 77.6659 143.286 78.0305 143.286C78.1809 143.286 78.3472 143.254 78.5295 143.19C78.7164 143.127 78.942 143.022 79.2063 142.876L79.4319 143.327C78.9944 143.591 78.5979 143.792 78.2424 143.929C77.887 144.061 77.5771 144.127 77.3127 144.127C76.8251 144.127 76.4696 143.961 76.2463 143.628C76.023 143.291 75.9114 142.751 75.9114 142.008C75.9114 141.862 75.9205 141.342 75.9387 140.449C75.9615 139.551 75.9729 138.729 75.9729 137.981C75.9319 137.981 75.8726 137.984 75.7952 137.988C75.4169 138.002 75.1571 138.009 75.0159 138.009V137.517C75.4625 137.453 75.8316 137.289 76.1233 137.024C76.415 136.755 76.6292 136.389 76.7659 135.924ZM86.0149 140.107H82.679C82.4192 140.107 82.1799 140.112 81.9612 140.121C81.7424 140.13 81.5396 140.144 81.3528 140.162V140.415C81.3528 141.308 81.5579 141.999 81.968 142.486C82.3827 142.974 82.9661 143.218 83.718 143.218C84.0507 143.218 84.3788 143.163 84.7024 143.054C85.026 142.94 85.37 142.764 85.7346 142.527L86.0012 142.965C85.5318 143.348 85.0624 143.637 84.593 143.833C84.1282 144.029 83.6679 144.127 83.2122 144.127C82.328 144.127 81.5989 143.812 81.0247 143.184C80.4504 142.55 80.1633 141.739 80.1633 140.75C80.1633 139.697 80.4641 138.813 81.0657 138.098C81.6672 137.382 82.401 137.024 83.2668 137.024C84.0735 137.024 84.7161 137.293 85.1946 137.831C85.6731 138.369 85.9465 139.128 86.0149 140.107ZM84.7502 139.39C84.6135 138.829 84.4062 138.401 84.1282 138.104C83.8502 137.804 83.5175 137.653 83.1301 137.653C82.6926 137.653 82.3167 137.829 82.0022 138.18C81.6923 138.531 81.4895 139.004 81.3938 139.601C82.2961 139.601 83.0048 139.586 83.5198 139.554C84.0393 139.522 84.4495 139.467 84.7502 139.39ZM89.0569 136.942C89.025 137.252 88.9999 137.567 88.9817 137.886C88.9635 138.2 88.9498 138.535 88.9407 138.891C89.3098 138.239 89.6493 137.769 89.9592 137.482C90.2737 137.195 90.5972 137.052 90.9299 137.052C91.1897 137.052 91.3948 137.122 91.5452 137.264C91.6956 137.4 91.7708 137.587 91.7708 137.824C91.7708 137.993 91.7206 138.139 91.6204 138.262C91.5247 138.38 91.4107 138.439 91.2786 138.439C91.1965 138.439 91.0689 138.396 90.8958 138.309C90.7271 138.218 90.5813 138.173 90.4583 138.173C90.2213 138.173 89.9843 138.278 89.7473 138.487C89.5103 138.692 89.262 139.014 89.0022 139.451V140.203C89.0022 140.932 89.0068 141.525 89.0159 141.98C89.0295 142.432 89.0478 142.719 89.0706 142.842C89.1116 143.074 89.1982 143.234 89.3303 143.32C89.467 143.407 89.6972 143.45 90.0208 143.45H90.219V143.929C89.8635 143.901 89.5468 143.881 89.2688 143.867C88.9908 143.853 88.7561 143.847 88.5647 143.847C88.3004 143.847 88.0269 143.853 87.7444 143.867C87.4664 143.881 87.1747 143.901 86.8694 143.929V143.45H87.0266C87.3593 143.45 87.5849 143.37 87.7034 143.211C87.8219 143.051 87.8811 142.68 87.8811 142.097V141.379V139.157C87.8811 138.665 87.8469 138.348 87.7786 138.207C87.7102 138.066 87.5849 137.995 87.4026 137.995C87.3661 137.995 87.3274 137.997 87.2864 138.002C87.2454 138.002 87.177 138.009 87.0813 138.022L86.9993 137.599C87.3228 137.526 87.6555 137.434 87.9973 137.325C88.3391 137.216 88.6923 137.088 89.0569 136.942Z" fill="#00B2FF"/>
    <path d="M26.5247 154.912C26.7161 154.94 26.8892 154.96 27.0442 154.974C27.1991 154.988 27.3518 154.994 27.5022 154.994C28.359 154.994 29.0084 154.805 29.4504 154.427C29.8971 154.044 30.1204 153.486 30.1204 152.752C30.1204 152.091 29.9016 151.565 29.4641 151.173C29.0266 150.781 28.4342 150.585 27.6868 150.585C27.4817 150.585 27.2857 150.594 27.0989 150.613C26.9166 150.626 26.7366 150.649 26.5588 150.681C26.5452 151.296 26.5361 151.918 26.5315 152.547C26.5269 153.172 26.5247 153.96 26.5247 154.912ZM24.0911 159.199C24.1275 159.203 24.1617 159.208 24.1936 159.212C24.2301 159.212 24.2847 159.212 24.3577 159.212C24.7222 159.212 24.9683 159.089 25.0959 158.843C25.2281 158.592 25.2942 158.039 25.2942 157.182C25.2942 157.054 25.2919 156.82 25.2874 156.478C25.2828 156.136 25.2805 155.86 25.2805 155.651V151.371C25.2805 150.98 25.2099 150.711 25.0686 150.565C24.9273 150.419 24.6698 150.346 24.2961 150.346H24.2415V149.868C24.5514 149.89 24.859 149.906 25.1643 149.915C25.4742 149.924 25.7795 149.929 26.0803 149.929C26.4176 149.929 26.8186 149.92 27.2834 149.902C27.7528 149.879 28.0559 149.868 28.1926 149.868C29.1907 149.868 29.9882 150.116 30.5852 150.613C31.1822 151.109 31.4807 151.763 31.4807 152.575C31.4807 153.536 31.1526 154.286 30.4963 154.824C29.8446 155.357 28.9218 155.623 27.7278 155.623C27.6093 155.623 27.4475 155.617 27.2424 155.603C27.0419 155.589 26.8027 155.569 26.5247 155.541V157.599C26.5247 158.301 26.5953 158.743 26.7366 158.925C26.8824 159.103 27.1718 159.192 27.6047 159.192C27.6184 159.192 27.6412 159.189 27.6731 159.185C27.7096 159.18 27.7369 159.178 27.7551 159.178C27.7779 159.178 27.7939 159.18 27.803 159.185C27.8167 159.185 27.828 159.187 27.8372 159.192L27.844 159.643C27.5113 159.625 27.1764 159.611 26.8391 159.602C26.5019 159.593 26.1692 159.588 25.8411 159.588C25.6816 159.588 25.4469 159.593 25.137 159.602C24.8316 159.611 24.483 159.625 24.0911 159.643V159.199ZM34.1331 152.657C34.1012 152.966 34.0761 153.281 34.0579 153.6C34.0396 153.914 34.026 154.249 34.0168 154.605C34.386 153.953 34.7255 153.484 35.0354 153.197C35.3499 152.91 35.6734 152.766 36.0061 152.766C36.2659 152.766 36.4709 152.837 36.6213 152.978C36.7717 153.115 36.8469 153.301 36.8469 153.538C36.8469 153.707 36.7968 153.853 36.6965 153.976C36.6008 154.094 36.4869 154.154 36.3547 154.154C36.2727 154.154 36.1451 154.11 35.9719 154.024C35.8033 153.933 35.6575 153.887 35.5344 153.887C35.2974 153.887 35.0605 153.992 34.8235 154.202C34.5865 154.407 34.3381 154.728 34.0784 155.165V155.917C34.0784 156.646 34.0829 157.239 34.092 157.695C34.1057 158.146 34.1239 158.433 34.1467 158.556C34.1877 158.788 34.2743 158.948 34.4065 159.035C34.5432 159.121 34.7734 159.164 35.0969 159.164H35.2952V159.643C34.9397 159.616 34.623 159.595 34.345 159.581C34.067 159.568 33.8323 159.561 33.6409 159.561C33.3765 159.561 33.1031 159.568 32.8206 159.581C32.5426 159.595 32.2509 159.616 31.9456 159.643V159.164H32.1028C32.4355 159.164 32.6611 159.085 32.7795 158.925C32.898 158.766 32.9573 158.394 32.9573 157.811V157.093V154.871C32.9573 154.379 32.9231 154.063 32.8547 153.921C32.7864 153.78 32.6611 153.709 32.4788 153.709C32.4423 153.709 32.4036 153.712 32.3625 153.716C32.3215 153.716 32.2532 153.723 32.1575 153.737L32.0754 153.313C32.399 153.24 32.7317 153.149 33.0735 153.039C33.4153 152.93 33.7685 152.802 34.1331 152.657ZM40.7913 153.456C40.1806 153.456 39.6884 153.68 39.3147 154.126C38.9456 154.568 38.761 155.165 38.761 155.917C38.761 156.879 38.9661 157.658 39.3762 158.255C39.7909 158.852 40.3287 159.151 40.9895 159.151C41.6275 159.151 42.1357 158.914 42.5139 158.44C42.8967 157.966 43.0881 157.321 43.0881 156.505C43.0881 155.612 42.8717 154.881 42.4387 154.311C42.0103 153.741 41.4612 153.456 40.7913 153.456ZM40.969 152.739C41.9306 152.739 42.7258 153.062 43.3547 153.709C43.9882 154.352 44.3049 155.149 44.3049 156.102C44.3049 157.15 43.9722 158.034 43.3069 158.754C42.6415 159.47 41.8212 159.827 40.8459 159.827C39.8707 159.827 39.0686 159.499 38.4397 158.843C37.8153 158.187 37.5032 157.357 37.5032 156.355C37.5032 155.352 37.8427 154.5 38.5217 153.798C39.2053 153.092 40.0211 152.739 40.969 152.739ZM48.2083 153.258C47.7206 153.258 47.3424 153.409 47.0735 153.709C46.8046 154.01 46.6702 154.434 46.6702 154.981C46.6702 155.582 46.8 156.052 47.0598 156.389C47.3241 156.722 47.6933 156.888 48.1672 156.888C48.6458 156.888 49.0217 156.738 49.2952 156.437C49.5686 156.132 49.7053 155.712 49.7053 155.179C49.7053 154.564 49.5754 154.09 49.3157 153.757C49.0559 153.424 48.6868 153.258 48.2083 153.258ZM46.9641 159.547C46.7408 159.798 46.5767 160.026 46.4719 160.231C46.3671 160.436 46.3147 160.632 46.3147 160.819C46.3147 161.243 46.5038 161.6 46.8821 161.892C47.2649 162.184 47.7434 162.329 48.3176 162.329C48.9693 162.329 49.5321 162.147 50.0061 161.783C50.4846 161.423 50.7239 161.017 50.7239 160.566C50.7239 160.197 50.6077 159.937 50.3752 159.786C50.1428 159.636 49.6962 159.561 49.0354 159.561C48.967 159.561 48.8167 159.559 48.5842 159.554C48.3518 159.549 48.1558 159.547 47.9963 159.547H46.9641ZM49.8284 153.217C50.1337 153.217 50.4413 153.213 50.7512 153.203C51.0657 153.194 51.3801 153.181 51.6946 153.162L51.6604 153.846C51.4599 153.823 51.2389 153.807 50.9973 153.798C50.7603 153.785 50.4846 153.778 50.1702 153.778C50.3844 153.942 50.5461 154.142 50.6555 154.379C50.7694 154.612 50.8264 154.869 50.8264 155.152C50.8264 155.767 50.5689 156.296 50.054 156.738C49.5435 157.18 48.9146 157.401 48.1672 157.401C48.0898 157.401 47.9804 157.396 47.8391 157.387C47.6978 157.373 47.5976 157.364 47.5383 157.36C47.4153 157.442 47.2991 157.528 47.1897 157.619C47.0803 157.706 46.9801 157.797 46.8889 157.893C46.9573 158.021 47.0347 158.139 47.1213 158.248C47.2125 158.353 47.3173 158.453 47.4358 158.549C47.5771 158.549 47.7799 158.547 48.0442 158.542C48.6822 158.529 49.1015 158.522 49.302 158.522C50.1269 158.522 50.7193 158.647 51.0793 158.898C51.4439 159.148 51.6262 159.552 51.6262 160.108C51.6262 160.463 51.526 160.821 51.3254 161.181C51.1295 161.546 50.8515 161.878 50.4915 162.179C50.1223 162.484 49.6962 162.724 49.2131 162.897C48.7346 163.07 48.2584 163.157 47.7844 163.157C47.078 163.157 46.4856 162.97 46.0071 162.596C45.5331 162.222 45.2961 161.769 45.2961 161.236C45.2961 160.926 45.3941 160.62 45.5901 160.32C45.7906 160.023 46.1392 159.673 46.636 159.267C46.4309 159.08 46.26 158.889 46.1233 158.693C45.9911 158.497 45.884 158.283 45.802 158.05C45.9661 157.895 46.1461 157.749 46.342 157.613C46.538 157.471 46.7545 157.332 46.9915 157.196C46.5312 157.05 46.1711 156.806 45.9114 156.464C45.6516 156.122 45.5217 155.726 45.5217 155.275C45.5217 154.568 45.7815 153.971 46.301 153.484C46.8251 152.996 47.4791 152.752 48.2629 152.752C48.55 152.752 48.8189 152.791 49.0696 152.868C49.3202 152.941 49.5732 153.058 49.8284 153.217ZM54.5452 152.657C54.5133 152.966 54.4882 153.281 54.47 153.6C54.4517 153.914 54.4381 154.249 54.429 154.605C54.7981 153.953 55.1376 153.484 55.4475 153.197C55.762 152.91 56.0855 152.766 56.4182 152.766C56.678 152.766 56.8831 152.837 57.0334 152.978C57.1838 153.115 57.259 153.301 57.259 153.538C57.259 153.707 57.2089 153.853 57.1086 153.976C57.0129 154.094 56.899 154.154 56.7668 154.154C56.6848 154.154 56.5572 154.11 56.384 154.024C56.2154 153.933 56.0696 153.887 55.9465 153.887C55.7096 153.887 55.4726 153.992 55.2356 154.202C54.9986 154.407 54.7502 154.728 54.4905 155.165V155.917C54.4905 156.646 54.495 157.239 54.5042 157.695C54.5178 158.146 54.5361 158.433 54.5588 158.556C54.5999 158.788 54.6864 158.948 54.8186 159.035C54.9553 159.121 55.1855 159.164 55.509 159.164H55.7073V159.643C55.3518 159.616 55.0351 159.595 54.7571 159.581C54.4791 159.568 54.2444 159.561 54.053 159.561C53.7887 159.561 53.5152 159.568 53.2327 159.581C52.9547 159.595 52.663 159.616 52.3577 159.643V159.164H52.5149C52.8476 159.164 53.0732 159.085 53.1917 158.925C53.3101 158.766 53.3694 158.394 53.3694 157.811V157.093V154.871C53.3694 154.379 53.3352 154.063 53.2668 153.921C53.1985 153.78 53.0732 153.709 52.8909 153.709C52.8544 153.709 52.8157 153.712 52.7747 153.716C52.7336 153.716 52.6653 153.723 52.5696 153.737L52.4875 153.313C52.8111 153.24 53.1438 153.149 53.4856 153.039C53.8274 152.93 54.1806 152.802 54.5452 152.657ZM64.0198 158.652L64.2112 159.082C63.8694 159.328 63.5572 159.518 63.2747 159.65C62.9921 159.786 62.7642 159.855 62.5911 159.855C62.2994 159.855 62.0806 159.771 61.9348 159.602C61.789 159.429 61.7092 159.169 61.6956 158.823C61.1988 159.155 60.7864 159.395 60.4583 159.54C60.1301 159.682 59.8362 159.752 59.5764 159.752C59.1161 159.752 58.731 159.579 58.4211 159.233C58.1112 158.886 57.9563 158.463 57.9563 157.961C57.9563 157.109 58.8746 156.466 60.7112 156.034C61.1441 155.933 61.4814 155.854 61.7229 155.794C61.7229 155.717 61.7252 155.605 61.7297 155.459C61.7434 155.159 61.7502 154.963 61.7502 154.871C61.7502 154.397 61.6523 154.049 61.4563 153.826C61.2603 153.598 60.9618 153.484 60.5608 153.484C60.1689 153.484 59.859 153.557 59.6311 153.702C59.4078 153.844 59.2961 154.037 59.2961 154.284C59.2961 154.306 59.2984 154.338 59.303 154.379C59.3075 154.416 59.3098 154.443 59.3098 154.461C59.3098 154.603 59.2415 154.721 59.1047 154.817C58.968 154.908 58.804 154.953 58.6125 154.953C58.4485 154.953 58.3277 154.926 58.2502 154.871C58.1728 154.817 58.134 154.732 58.134 154.618C58.134 154.254 58.4417 153.848 59.0569 153.402C59.6721 152.951 60.3079 152.725 60.9641 152.725C61.5976 152.725 62.0784 152.9 62.4065 153.251C62.7346 153.598 62.8987 154.108 62.8987 154.783C62.8987 155.147 62.8759 155.708 62.8303 156.464C62.7893 157.221 62.7688 157.795 62.7688 158.187C62.7688 158.483 62.8007 158.684 62.8645 158.788C62.9329 158.893 63.0514 158.946 63.22 158.946C63.2929 158.946 63.3863 158.925 63.5002 158.884C63.6187 158.839 63.7919 158.761 64.0198 158.652ZM61.6887 156.341C61.6021 156.364 61.4722 156.398 61.2991 156.444C59.818 156.849 59.0774 157.328 59.0774 157.879C59.0774 158.18 59.1731 158.426 59.3645 158.618C59.5559 158.804 59.8088 158.898 60.1233 158.898C60.3147 158.898 60.5357 158.848 60.7864 158.747C61.037 158.647 61.3287 158.488 61.6614 158.269L61.6887 156.341ZM66.72 152.657C66.7017 152.843 66.6858 153.026 66.6721 153.203C66.6584 153.377 66.6493 153.552 66.6448 153.73C67.2646 153.338 67.7476 153.076 68.094 152.944C68.4403 152.807 68.773 152.739 69.092 152.739C69.4794 152.739 69.8075 152.827 70.0764 153.005C70.3499 153.183 70.5823 153.463 70.7737 153.846C71.3844 153.44 71.8834 153.156 72.2708 152.992C72.6581 152.823 73.0068 152.739 73.3167 152.739C73.982 152.739 74.4651 152.941 74.7659 153.347C75.0712 153.753 75.2239 154.409 75.2239 155.316V155.459L75.1965 157.708C75.1965 157.936 75.192 158.144 75.1829 158.33C75.1829 158.344 75.1829 158.353 75.1829 158.358C75.1829 158.686 75.233 158.902 75.3333 159.007C75.4335 159.112 75.634 159.164 75.9348 159.164H76.092V159.643C75.65 159.616 75.3196 159.597 75.1008 159.588C74.8821 159.579 74.7043 159.575 74.5676 159.575C74.4218 159.575 74.2395 159.579 74.0208 159.588C73.8066 159.597 73.4989 159.616 73.0979 159.643V159.164C73.1252 159.169 73.1594 159.174 73.2004 159.178C73.2415 159.178 73.2984 159.178 73.3713 159.178C73.663 159.178 73.8567 159.085 73.9524 158.898C74.0527 158.706 74.1028 158.246 74.1028 157.517V156.519C74.1028 156.355 74.1051 156.138 74.1096 155.869C74.1142 155.601 74.1165 155.411 74.1165 155.302C74.1165 154.719 74.0094 154.29 73.7952 154.017C73.5855 153.743 73.2597 153.607 72.8176 153.607C72.6034 153.607 72.3482 153.664 72.052 153.778C71.7558 153.892 71.3889 154.074 70.9514 154.325L70.8967 157.695V158.255C70.8967 158.665 70.9469 158.921 71.0471 159.021C71.1519 159.117 71.3639 159.164 71.6829 159.164H71.7649V159.636C71.4049 159.618 71.1041 159.604 70.8625 159.595C70.621 159.581 70.4137 159.575 70.2405 159.575C70.0673 159.575 69.8645 159.581 69.6321 159.595C69.3997 159.604 69.1558 159.62 68.9006 159.643L68.8938 159.164C69.2128 159.164 69.4202 159.139 69.5159 159.089C69.6116 159.035 69.6799 158.911 69.7209 158.72C69.7528 158.57 69.7756 158.189 69.7893 157.578C69.8075 156.968 69.8167 156.186 69.8167 155.234C69.8167 154.664 69.7141 154.252 69.509 153.996C69.3085 153.737 68.9872 153.607 68.5452 153.607C68.331 153.607 68.0735 153.664 67.7727 153.778C67.4765 153.887 67.1187 154.06 66.6995 154.297C66.6721 155.04 66.6516 155.685 66.6379 156.232C66.6288 156.779 66.6243 157.275 66.6243 157.722C66.6243 158.419 66.6698 158.836 66.761 158.973C66.8567 159.11 67.0549 159.178 67.3557 159.178C67.3785 159.178 67.4127 159.176 67.4583 159.171C67.5084 159.167 67.5494 159.164 67.5813 159.164L67.5745 159.643C67.2919 159.62 67.0185 159.604 66.7542 159.595C66.4898 159.581 66.2415 159.575 66.009 159.575C65.8085 159.575 65.5852 159.581 65.3391 159.595C65.093 159.604 64.8333 159.62 64.5598 159.643L64.553 159.164H64.6829C65.2525 159.164 65.5396 158.611 65.5442 157.503C65.5442 157.339 65.5465 157.212 65.551 157.12L65.5647 155.446V154.769C65.5647 154.322 65.5305 154.031 65.4622 153.894C65.3938 153.753 65.2685 153.682 65.0862 153.682C65.0497 153.682 65.0019 153.687 64.9426 153.696C64.8879 153.705 64.8287 153.718 64.7649 153.737L64.6829 153.313C65.0201 153.222 65.3596 153.121 65.7014 153.012C66.0432 152.903 66.3827 152.784 66.72 152.657ZM79.0383 152.657C79.0201 152.843 79.0042 153.026 78.9905 153.203C78.9768 153.377 78.9677 153.552 78.9631 153.73C79.5829 153.338 80.066 153.076 80.4124 152.944C80.7587 152.807 81.0914 152.739 81.4104 152.739C81.7978 152.739 82.1259 152.827 82.3948 153.005C82.6682 153.183 82.9006 153.463 83.092 153.846C83.7027 153.44 84.2017 153.156 84.5891 152.992C84.9765 152.823 85.3251 152.739 85.635 152.739C86.3004 152.739 86.7834 152.941 87.0842 153.347C87.3896 153.753 87.5422 154.409 87.5422 155.316V155.459L87.5149 157.708C87.5149 157.936 87.5103 158.144 87.5012 158.33C87.5012 158.344 87.5012 158.353 87.5012 158.358C87.5012 158.686 87.5514 158.902 87.6516 159.007C87.7519 159.112 87.9524 159.164 88.2532 159.164H88.4104V159.643C87.9683 159.616 87.6379 159.597 87.4192 159.588C87.2004 159.579 87.0227 159.575 86.886 159.575C86.7402 159.575 86.5579 159.579 86.3391 159.588C86.1249 159.597 85.8173 159.616 85.4163 159.643V159.164C85.4436 159.169 85.4778 159.174 85.5188 159.178C85.5598 159.178 85.6168 159.178 85.6897 159.178C85.9814 159.178 86.175 159.085 86.2708 158.898C86.371 158.706 86.4211 158.246 86.4211 157.517V156.519C86.4211 156.355 86.4234 156.138 86.428 155.869C86.4325 155.601 86.4348 155.411 86.4348 155.302C86.4348 154.719 86.3277 154.29 86.1135 154.017C85.9039 153.743 85.578 153.607 85.136 153.607C84.9218 153.607 84.6666 153.664 84.3704 153.778C84.0741 153.892 83.7073 154.074 83.2698 154.325L83.2151 157.695V158.255C83.2151 158.665 83.2652 158.921 83.3655 159.021C83.4703 159.117 83.6822 159.164 84.0012 159.164H84.0833V159.636C83.7232 159.618 83.4224 159.604 83.1809 159.595C82.9394 159.581 82.732 159.575 82.5588 159.575C82.3857 159.575 82.1829 159.581 81.9504 159.595C81.718 159.604 81.4742 159.62 81.219 159.643L81.2122 159.164C81.5312 159.164 81.7385 159.139 81.8342 159.089C81.9299 159.035 81.9983 158.911 82.0393 158.72C82.0712 158.57 82.094 158.189 82.1077 157.578C82.1259 156.968 82.135 156.186 82.135 155.234C82.135 154.664 82.0325 154.252 81.8274 153.996C81.6269 153.737 81.3056 153.607 80.8635 153.607C80.6493 153.607 80.3918 153.664 80.0911 153.778C79.7948 153.887 79.4371 154.06 79.0178 154.297C78.9905 155.04 78.97 155.685 78.9563 156.232C78.9472 156.779 78.9426 157.275 78.9426 157.722C78.9426 158.419 78.9882 158.836 79.0793 158.973C79.175 159.11 79.3733 159.178 79.6741 159.178C79.6969 159.178 79.731 159.176 79.7766 159.171C79.8267 159.167 79.8678 159.164 79.8997 159.164L79.8928 159.643C79.6103 159.62 79.3368 159.604 79.0725 159.595C78.8082 159.581 78.5598 159.575 78.3274 159.575C78.1269 159.575 77.9036 159.581 77.6575 159.595C77.4114 159.604 77.1516 159.62 76.8782 159.643L76.8713 159.164H77.0012C77.5709 159.164 77.858 158.611 77.8625 157.503C77.8625 157.339 77.8648 157.212 77.8694 157.12L77.8831 155.446V154.769C77.8831 154.322 77.8489 154.031 77.7805 153.894C77.7122 153.753 77.5868 153.682 77.4045 153.682C77.3681 153.682 77.3202 153.687 77.261 153.696C77.2063 153.705 77.1471 153.718 77.0833 153.737L77.0012 153.313C77.3385 153.222 77.678 153.121 78.0198 153.012C78.3616 152.903 78.7011 152.784 79.0383 152.657ZM91.5276 152.657C91.523 152.83 91.5162 153.076 91.5071 153.395C91.4478 155.227 91.4182 156.517 91.4182 157.264V157.989C91.4182 158.517 91.4683 158.85 91.5686 158.987C91.6689 159.123 91.8648 159.192 92.1565 159.192C92.1838 159.192 92.2203 159.189 92.2659 159.185C92.3114 159.18 92.3456 159.178 92.3684 159.178V159.643C91.981 159.616 91.6689 159.597 91.4319 159.588C91.1949 159.579 90.9944 159.575 90.8303 159.575C90.6845 159.575 90.4976 159.579 90.2698 159.588C90.0465 159.597 89.7092 159.616 89.2581 159.643V159.164H89.429C89.9941 159.164 90.2789 158.608 90.2834 157.496C90.2834 157.337 90.2834 157.212 90.2834 157.12L90.3108 155.432C90.3108 155.309 90.3131 155.154 90.3176 154.967C90.3222 154.78 90.3245 154.655 90.3245 154.591C90.3245 154.222 90.288 153.978 90.2151 153.86C90.1467 153.741 90.0191 153.682 89.8323 153.682C89.7958 153.682 89.7411 153.687 89.6682 153.696C89.5999 153.7 89.5247 153.707 89.4426 153.716L89.3743 153.285C89.7343 153.217 90.092 153.131 90.4475 153.026C90.8075 152.921 91.1676 152.798 91.5276 152.657ZM90.7893 149.437L91.2747 149.799C91.4023 149.895 91.4957 149.991 91.5549 150.086C91.6142 150.182 91.6438 150.282 91.6438 150.387C91.6438 150.492 91.6187 150.583 91.5686 150.66C91.523 150.733 91.4342 150.82 91.302 150.92L90.7893 151.31L90.3108 150.934C90.1786 150.829 90.0829 150.733 90.0237 150.647C89.9644 150.556 89.9348 150.46 89.9348 150.36C89.9348 150.259 89.9576 150.173 90.0032 150.1C90.0487 150.022 90.1422 149.931 90.2834 149.827L90.7893 149.437ZM95.5608 152.657L95.4788 153.805C95.9937 153.431 96.4403 153.16 96.8186 152.992C97.2014 152.823 97.5523 152.739 97.8713 152.739C98.5413 152.739 99.0448 152.928 99.3821 153.306C99.7193 153.684 99.8879 154.252 99.8879 155.008C99.8879 155.013 99.8857 155.213 99.8811 155.61C99.8765 156.006 99.8743 156.403 99.8743 156.799C99.8743 156.968 99.872 157.18 99.8674 157.435C99.8629 157.686 99.8606 157.856 99.8606 157.948C99.8606 158.458 99.9062 158.791 99.9973 158.946C100.088 159.101 100.262 159.178 100.517 159.178C100.531 159.178 100.556 159.176 100.592 159.171C100.633 159.167 100.663 159.164 100.681 159.164V159.643C100.271 159.616 99.9609 159.597 99.7512 159.588C99.5416 159.579 99.3661 159.575 99.2249 159.575C99.0061 159.575 98.7691 159.581 98.5139 159.595C98.2587 159.604 97.9989 159.62 97.7346 159.643L97.7278 159.164H97.8303C98.4137 159.164 98.7099 158.631 98.719 157.565C98.7236 157.506 98.7258 157.46 98.7258 157.428L98.7395 155.958V155.712C98.7395 154.869 98.6415 154.311 98.4456 154.037C98.2496 153.759 97.9124 153.62 97.4338 153.62C97.1695 153.62 96.8756 153.684 96.552 153.812C96.233 153.935 95.8935 154.119 95.5334 154.366C95.5152 154.84 95.5015 155.288 95.4924 155.712C95.4833 156.132 95.4788 156.512 95.4788 156.854V157.797C95.4788 158.399 95.5221 158.779 95.6086 158.939C95.6998 159.098 95.8752 159.178 96.135 159.178C96.1532 159.178 96.1806 159.176 96.217 159.171C96.2581 159.167 96.29 159.164 96.3127 159.164V159.643C95.9208 159.616 95.6109 159.597 95.3831 159.588C95.1597 159.579 94.9752 159.575 94.8293 159.575C94.6926 159.575 94.5126 159.579 94.2893 159.588C94.066 159.597 93.7538 159.616 93.3528 159.643L93.3459 159.164H93.4758C94.0455 159.164 94.3326 158.611 94.3372 157.503C94.3372 157.339 94.3394 157.212 94.344 157.12L94.3577 155.446V154.769C94.3577 154.322 94.3235 154.031 94.2551 153.894C94.1868 153.753 94.0614 153.682 93.8792 153.682C93.8427 153.682 93.7948 153.687 93.7356 153.696C93.6809 153.705 93.6217 153.718 93.5579 153.737L93.4758 153.313C93.8176 153.249 94.1594 153.162 94.5012 153.053C94.8476 152.944 95.2008 152.812 95.5608 152.657ZM104.618 153.258C104.131 153.258 103.753 153.409 103.484 153.709C103.215 154.01 103.08 154.434 103.08 154.981C103.08 155.582 103.21 156.052 103.47 156.389C103.734 156.722 104.103 156.888 104.577 156.888C105.056 156.888 105.432 156.738 105.705 156.437C105.979 156.132 106.115 155.712 106.115 155.179C106.115 154.564 105.986 154.09 105.726 153.757C105.466 153.424 105.097 153.258 104.618 153.258ZM103.374 159.547C103.151 159.798 102.987 160.026 102.882 160.231C102.777 160.436 102.725 160.632 102.725 160.819C102.725 161.243 102.914 161.6 103.292 161.892C103.675 162.184 104.154 162.329 104.728 162.329C105.379 162.329 105.942 162.147 106.416 161.783C106.895 161.423 107.134 161.017 107.134 160.566C107.134 160.197 107.018 159.937 106.785 159.786C106.553 159.636 106.106 159.561 105.446 159.561C105.377 159.561 105.227 159.559 104.994 159.554C104.762 159.549 104.566 159.547 104.406 159.547H103.374ZM106.239 153.217C106.544 153.217 106.851 153.213 107.161 153.203C107.476 153.194 107.79 153.181 108.105 153.162L108.071 153.846C107.87 153.823 107.649 153.807 107.407 153.798C107.17 153.785 106.895 153.778 106.58 153.778C106.795 153.942 106.956 154.142 107.066 154.379C107.18 154.612 107.237 154.869 107.237 155.152C107.237 155.767 106.979 156.296 106.464 156.738C105.954 157.18 105.325 157.401 104.577 157.401C104.5 157.401 104.391 157.396 104.249 157.387C104.108 157.373 104.008 157.364 103.948 157.36C103.825 157.442 103.709 157.528 103.6 157.619C103.49 157.706 103.39 157.797 103.299 157.893C103.367 158.021 103.445 158.139 103.531 158.248C103.623 158.353 103.727 158.453 103.846 158.549C103.987 158.549 104.19 158.547 104.454 158.542C105.092 158.529 105.512 158.522 105.712 158.522C106.537 158.522 107.129 158.647 107.49 158.898C107.854 159.148 108.036 159.552 108.036 160.108C108.036 160.463 107.936 160.821 107.736 161.181C107.54 161.546 107.262 161.878 106.902 162.179C106.532 162.484 106.106 162.724 105.623 162.897C105.145 163.07 104.669 163.157 104.195 163.157C103.488 163.157 102.896 162.97 102.417 162.596C101.943 162.222 101.706 161.769 101.706 161.236C101.706 160.926 101.804 160.62 102 160.32C102.201 160.023 102.549 159.673 103.046 159.267C102.841 159.08 102.67 158.889 102.533 158.693C102.401 158.497 102.294 158.283 102.212 158.05C102.376 157.895 102.556 157.749 102.752 157.613C102.948 157.471 103.165 157.332 103.402 157.196C102.941 157.05 102.581 156.806 102.322 156.464C102.062 156.122 101.932 155.726 101.932 155.275C101.932 154.568 102.192 153.971 102.711 153.484C103.235 152.996 103.889 152.752 104.673 152.752C104.96 152.752 105.229 152.791 105.48 152.868C105.73 152.941 105.983 153.058 106.239 153.217Z" fill="#008000"/>
    <path d="M124.329 147.532C124.329 147.59 124.326 147.684 124.321 147.813C124.315 147.936 124.312 148.027 124.312 148.085C124.312 148.478 124.329 148.894 124.365 149.333C124.4 149.773 124.455 150.256 124.531 150.784L123.661 150.933C123.568 150.06 123.196 149.383 122.545 148.903C121.895 148.416 121.036 148.173 119.97 148.173C118.611 148.173 117.556 148.598 116.806 149.448C116.062 150.291 115.69 151.487 115.69 153.034C115.69 154.703 116.112 156.034 116.955 157.024C117.805 158.014 118.939 158.509 120.357 158.509C121.247 158.509 122.006 158.307 122.633 157.903C123.266 157.498 123.779 156.883 124.171 156.057L124.945 156.417C124.71 156.88 124.505 157.334 124.329 157.78C124.154 158.219 124.004 158.656 123.881 159.089C123.172 159.376 122.478 159.593 121.798 159.74C121.124 159.892 120.474 159.968 119.847 159.968C117.808 159.968 116.156 159.365 114.89 158.158C113.624 156.951 112.991 155.374 112.991 153.429C112.991 151.507 113.654 149.925 114.978 148.683C116.308 147.435 117.992 146.811 120.031 146.811C120.764 146.811 121.482 146.869 122.185 146.987C122.894 147.104 123.609 147.285 124.329 147.532ZM127.996 149.075C127.969 149.922 127.953 151.025 127.948 152.383C127.944 152.907 127.942 153.283 127.942 153.511L127.928 154.912V155.972V157.401V157.961C127.928 158.485 127.985 158.818 128.099 158.959C128.217 159.096 128.438 159.164 128.762 159.164H128.919V159.643C128.605 159.62 128.309 159.604 128.031 159.595C127.757 159.581 127.516 159.575 127.306 159.575C127.092 159.575 126.857 159.581 126.602 159.595C126.347 159.604 126.08 159.62 125.802 159.643L125.795 159.164C125.827 159.164 125.866 159.167 125.911 159.171C125.962 159.176 125.998 159.178 126.021 159.178C126.34 159.178 126.552 159.096 126.656 158.932C126.766 158.763 126.821 158.278 126.821 157.476V156.97L126.848 151.829V150.654C126.848 150.458 126.805 150.312 126.718 150.216C126.636 150.116 126.511 150.066 126.342 150.066C126.278 150.066 126.16 150.082 125.987 150.114C125.964 150.118 125.948 150.12 125.939 150.12L125.836 149.676C126.219 149.612 126.588 149.53 126.944 149.43C127.304 149.33 127.655 149.211 127.996 149.075ZM132.016 152.732C131.984 153.625 131.959 154.409 131.941 155.083C131.922 155.753 131.913 156.218 131.913 156.478C131.913 157.453 132.014 158.105 132.214 158.433C132.415 158.757 132.759 158.918 133.246 158.918C133.488 158.918 133.757 158.859 134.053 158.741C134.349 158.622 134.686 158.442 135.065 158.201C135.078 157.499 135.087 156.92 135.092 156.464C135.101 156.008 135.106 155.674 135.106 155.459V154.994C135.106 154.42 135.058 154.06 134.962 153.914C134.866 153.769 134.682 153.696 134.408 153.696C134.363 153.696 134.313 153.698 134.258 153.702C134.208 153.702 134.156 153.705 134.101 153.709L134.06 153.272C134.447 153.244 134.828 153.201 135.201 153.142C135.58 153.083 135.949 153.01 136.309 152.923C136.281 153.702 136.261 154.397 136.247 155.008C136.234 155.619 136.227 156.152 136.227 156.608C136.227 156.795 136.225 157.029 136.22 157.312C136.215 157.59 136.213 157.774 136.213 157.866C136.213 158.289 136.25 158.567 136.323 158.7C136.395 158.832 136.532 158.898 136.733 158.898C136.778 158.898 136.831 158.893 136.89 158.884C136.954 158.875 137.036 158.857 137.136 158.829L137.191 159.253L135.106 159.78L135.078 158.761C134.586 159.135 134.153 159.408 133.78 159.581C133.41 159.755 133.073 159.841 132.768 159.841C132.143 159.841 131.656 159.661 131.305 159.301C130.954 158.941 130.779 158.44 130.779 157.797C130.779 157.633 130.785 157.289 130.799 156.765C130.804 156.546 130.806 156.375 130.806 156.252L130.826 155.487C130.826 155.359 130.829 155.197 130.833 155.001C130.838 154.801 130.84 154.664 130.84 154.591C130.84 154.199 130.806 153.939 130.738 153.812C130.674 153.684 130.553 153.62 130.375 153.62C130.321 153.62 130.257 153.625 130.184 153.634C130.111 153.643 130.036 153.652 129.958 153.661L129.91 153.217C130.239 153.162 130.576 153.096 130.922 153.019C131.273 152.937 131.638 152.841 132.016 152.732ZM140.185 158.747C140.394 158.857 140.604 158.939 140.814 158.993C141.023 159.044 141.249 159.069 141.49 159.069C142.247 159.069 142.842 158.834 143.275 158.365C143.708 157.891 143.924 157.239 143.924 156.41C143.924 155.598 143.728 154.942 143.336 154.441C142.949 153.935 142.445 153.682 141.825 153.682C141.566 153.682 141.297 153.725 141.019 153.812C140.741 153.898 140.431 154.035 140.089 154.222C140.085 154.618 140.08 154.994 140.075 155.35C140.075 155.701 140.075 156.027 140.075 156.327C140.075 157.02 140.085 157.558 140.103 157.941C140.121 158.324 140.148 158.592 140.185 158.747ZM140.171 149.047L140.164 149.293C140.096 151.08 140.062 152.388 140.062 153.217V153.668C140.531 153.354 140.944 153.128 141.299 152.992C141.655 152.85 141.999 152.78 142.331 152.78C143.083 152.78 143.73 153.092 144.273 153.716C144.815 154.336 145.086 155.088 145.086 155.972C145.086 157.093 144.728 158.002 144.013 158.7C143.297 159.392 142.345 159.739 141.156 159.739C140.764 159.739 140.381 159.714 140.007 159.663C139.633 159.613 139.264 159.536 138.9 159.431C138.927 157.904 138.948 156.694 138.961 155.801C138.975 154.903 138.982 154.322 138.982 154.058V153.149C138.982 152.912 138.984 152.611 138.989 152.246C138.993 151.882 138.995 151.636 138.995 151.508C138.995 150.907 138.959 150.51 138.886 150.319C138.818 150.123 138.688 150.025 138.496 150.025C138.451 150.025 138.394 150.029 138.325 150.038C138.262 150.043 138.184 150.052 138.093 150.066L138.018 149.635C138.369 149.562 138.724 149.478 139.084 149.382C139.444 149.286 139.807 149.175 140.171 149.047Z" fill="#FFC500"/>
    <path d="M62.6488 0C46.0333 -1.98138e-07 30.0983 6.60047 18.3494 18.3494C6.60048 30.0983 1.45257e-06 46.0333 0 62.6487C-1.45257e-06 79.2642 6.60047 95.1992 18.3494 106.948C30.0983 118.697 46.0333 125.297 62.6488 125.297L62.6488 106.503C51.0179 106.503 39.8635 101.883 31.6392 93.6583C23.415 85.434 18.7946 74.2796 18.7946 62.6487C18.7946 51.0179 23.415 39.8634 31.6392 31.6392C39.8635 23.415 51.0179 18.7946 62.6488 18.7946L62.6488 0Z" fill="#D48901"/>
    <path d="M149.65 74.2557C151.64 81.8319 149.316 75.7444 154.871 81.0953C156.263 82.4364 155.767 81.9198 163.216 83.4354C170.664 84.9511 178.374 84.2834 185.474 81.5077C192.575 78.7321 198.785 73.9589 203.401 67.7271C208.018 61.4953 210.859 54.0529 211.603 46.24C212.346 38.427 210.964 30.5547 207.61 23.5114C204.257 16.4681 199.067 10.5344 192.626 6.38002C186.185 2.22561 178.749 0.0159248 171.158 0.000366211L171.122 18.7915C175.326 18.8001 179.444 20.0238 183.011 22.3245C186.578 24.6252 189.452 27.9113 191.309 31.8119C193.166 35.7124 193.932 40.0722 193.52 44.399C193.108 48.7258 191.535 52.8474 188.978 56.2985C186.422 59.7497 182.983 62.3931 179.05 63.9302C175.118 65.4674 170.848 65.8372 166.723 64.9978C162.598 64.1584 158.783 62.1434 155.706 59.18C152.63 56.2167 150.752 52.2265 149.65 48.0308V74.2557Z" fill="#D48901"/>
    <path d="M62.6504 0H171.241V18.7946H62.6504V0Z" fill="#D48901"/>
    <path d="M62.6504 0H171.241V18.7946H62.6504V0Z" fill="#D48901"/>
    <path d="M62.6504 0H171.241V18.7946H62.6504V0Z" fill="#D48901"/>
    <path d="M56.1496 121.38C51.5849 115.123 56.054 106.33 63.7992 106.33H113.936C119.166 106.33 123.405 110.57 123.405 115.799V115.799C123.405 121.029 119.166 125.268 113.936 125.268H63.7992C60.7746 125.268 57.9321 123.823 56.1496 121.38V121.38Z" fill="#D48901"/>
    <path d="M56.1496 121.38C51.5849 115.123 56.054 106.33 63.7992 106.33H113.936C119.166 106.33 123.405 110.57 123.405 115.799V115.799C123.405 121.029 119.166 125.268 113.936 125.268H63.7992C60.7746 125.268 57.9321 123.823 56.1496 121.38V121.38Z" fill="#D48901"/>
    <path d="M56.1496 121.38C51.5849 115.123 56.054 106.33 63.7992 106.33H113.936C119.166 106.33 123.405 110.57 123.405 115.799V115.799C123.405 121.029 119.166 125.268 113.936 125.268H63.7992C60.7746 125.268 57.9321 123.823 56.1496 121.38V121.38Z" fill="#D48901"/>
    <rect x="149.65" y="66.1265" width="16.7063" height="89.1003" rx="8.35313" fill="#D48901"/>
    <path d="M137.528 48.2674C139.599 45.9936 139.454 42.4137 136.814 40.8358C133.72 38.9863 130.281 37.746 126.681 37.2031C121.236 36.3817 115.669 37.1935 110.685 39.5359C105.701 41.8782 101.524 45.6459 98.6811 50.3625C95.8383 55.0791 94.4581 60.5327 94.7148 66.0337C94.9716 71.5348 96.8538 76.8361 100.124 81.2674C103.393 85.6987 107.903 89.0609 113.084 90.9288C118.265 92.7968 123.883 93.0865 129.228 91.7615C132.761 90.8857 136.07 89.3304 138.978 87.2008C141.46 85.3838 141.27 81.806 138.997 79.735V79.735C136.723 77.664 133.22 77.9362 130.519 79.4072C129.273 80.0856 127.94 80.6062 126.548 80.9511C123.341 81.7462 119.97 81.5723 116.862 80.4515C113.753 79.3308 111.047 77.3134 109.085 74.6547C107.124 71.9959 105.994 68.8151 105.84 65.5145C105.686 62.2139 106.514 58.9417 108.22 56.1117C109.926 53.2818 112.432 51.0212 115.423 49.6158C118.413 48.2103 121.753 47.7232 125.02 48.2161C126.438 48.4299 127.814 48.824 129.117 49.3835C131.944 50.5965 135.457 50.5412 137.528 48.2674V48.2674Z" fill="#D48901"/>
    <path d="M287.27 24.7941C278.029 12.6078 264.649 4.22282 249.653 1.21967C234.657 -1.78347 219.08 0.802694 205.859 8.49068L218.456 30.1539C226.389 25.5411 235.735 23.9894 244.732 25.7913C253.73 27.5932 261.758 32.6242 267.303 39.936L287.27 24.7941Z" fill="#D48901"/>
    <path d="M181.417 90.866C186.058 100.065 192.896 107.978 201.325 113.902C209.754 119.827 219.514 123.582 229.741 124.834C239.968 126.085 250.346 124.795 259.956 121.077C269.565 117.36 278.109 111.33 284.831 103.521L265.839 87.1723C261.806 91.8574 256.679 95.4755 250.914 97.706C245.148 99.9365 238.922 100.711 232.785 99.9596C226.649 99.2087 220.793 96.956 215.735 93.401C210.678 89.846 206.575 85.0985 203.791 79.5791L181.417 90.866Z" fill="#D48901"/>
    <path d="M41.3551 54.4152C43.3768 52.9464 46.2063 53.3946 47.6751 55.4162V55.4162C49.1439 57.4378 48.6957 60.2674 46.6741 61.7361L32.7767 71.8332C30.7551 73.302 27.9255 72.8539 26.4567 70.8322V70.8322C24.9879 68.8106 25.4361 65.9811 27.4577 64.5123L41.3551 54.4152Z" fill="#CC0808"/>
    <path d="M27.3343 71.9326C25.3127 70.4638 24.8645 67.6342 26.3333 65.6126V65.6126C27.8021 63.591 30.6317 63.1428 32.6533 64.6116L46.1691 74.4314C48.1907 75.9002 48.6388 78.7297 47.17 80.7514V80.7514C45.7013 82.773 42.8717 83.2211 40.8501 81.7523L27.3343 71.9326Z" fill="#00B2FF"/>
    <path d="M73.7259 76.6339C71.7043 78.1027 68.8747 77.6545 67.406 75.6329V75.6329C65.9372 73.6113 66.3853 70.7817 68.4069 69.3129L82.3044 59.2158C84.326 57.747 87.1556 58.1952 88.6243 60.2168V60.2168C90.0931 62.2384 89.645 65.068 87.6234 66.5368L73.7259 76.6339Z" fill="#FFC500"/>
    <path d="M87.7604 59.118C89.782 60.5868 90.2302 63.4164 88.7614 65.438V65.438C87.2926 67.4596 84.4631 67.9078 82.4414 66.439L68.9257 56.6192C66.904 55.1504 66.4559 52.3209 67.9247 50.2992V50.2992C69.3935 48.2776 72.223 47.8295 74.2446 49.2982L87.7604 59.118Z" fill="#008000"/>
    <rect x="58.2637" y="42.3076" width="9.74529" height="45.7255" rx="2" transform="rotate(14 58.2637 42.3076)" fill="#9B9B9B"/>
    </svg>
    
