<svg width="60" height="32" viewBox="0 0 60 32" fill="none" xmlns="http://www.w3.org/2000/svg">
    <path d="M12.5298 0C9.20668 -3.96276e-08 6.01968 1.3201 3.66989 3.66989C1.3201 6.01968 2.90515e-07 9.20667 0 12.5298C-2.90515e-07 15.8529 1.3201 19.0399 3.66989 21.3897C6.01968 23.7395 9.20668 25.0596 12.5298 25.0596L12.5298 21.3021C10.2032 21.3021 7.97194 20.3779 6.32681 18.7327C4.68168 17.0876 3.75746 14.8563 3.75746 12.5298C3.75746 10.2032 4.68168 7.97194 6.32681 6.32681C7.97194 4.68168 10.2032 3.75746 12.5298 3.75746L12.5298 0Z" fill="#D48901"/>
    <path d="M29.9302 14.8512C30.3281 16.3665 29.8634 15.149 30.9743 16.2191C31.2528 16.4874 31.1535 16.384 32.6432 16.6872C34.1329 16.9903 35.6748 16.8568 37.095 16.3016C38.5152 15.7465 39.757 14.7919 40.6804 13.5455C41.6038 12.2991 42.1719 10.8107 42.3207 9.24807C42.4694 7.68548 42.1928 6.111 41.5222 4.70234C40.8516 3.29368 39.8136 2.10694 38.5253 1.27606C37.2371 0.445173 35.7499 0.0032338 34.2317 0.00012207L34.2245 3.75835C35.0653 3.76008 35.8889 4.00482 36.6023 4.46496C37.3157 4.92511 37.8906 5.58233 38.262 6.36244C38.6334 7.14255 38.7865 8.0145 38.7042 8.87986C38.6218 9.74523 38.3072 10.5695 37.7958 11.2598C37.2844 11.95 36.5967 12.4787 35.8102 12.7861C35.0237 13.0936 34.1698 13.1675 33.3448 12.9996C32.5198 12.8318 31.7566 12.4288 31.1414 11.8361C30.5261 11.2434 30.1506 10.4454 29.9302 9.60623V14.8512Z" fill="#D48901"/>
    <path d="M12.53 0H34.2483V3.75893H12.53V0Z" fill="#D48901"/>
    <path d="M12.53 0H34.2483V3.75893H12.53V0Z" fill="#D48901"/>
    <path d="M12.53 0H34.2483V3.75893H12.53V0Z" fill="#D48901"/>
    <path d="M10.918 23.1799C10.918 22.1419 11.7594 21.3005 12.7974 21.3005H23.0997C24.1377 21.3005 24.9791 22.1419 24.9791 23.1799V23.1799C24.9791 24.2179 24.1377 25.0594 23.0997 25.0594H12.7974C11.7594 25.0594 10.918 24.2179 10.918 23.1799V23.1799Z" fill="#D48901"/>
    <path d="M10.918 23.1799C10.918 22.1419 11.7594 21.3005 12.7974 21.3005H23.0997C24.1377 21.3005 24.9791 22.1419 24.9791 23.1799V23.1799C24.9791 24.2179 24.1377 25.0594 23.0997 25.0594H12.7974C11.7594 25.0594 10.918 24.2179 10.918 23.1799V23.1799Z" fill="#D48901"/>
    <path d="M10.918 23.1799C10.918 22.1419 11.7594 21.3005 12.7974 21.3005H23.0997C24.1377 21.3005 24.9791 22.1419 24.9791 23.1799V23.1799C24.9791 24.2179 24.1377 25.0594 23.0997 25.0594H12.7974C11.7594 25.0594 10.918 24.2179 10.918 23.1799V23.1799Z" fill="#D48901"/>
    <rect x="29.9302" y="13.2253" width="3.34126" height="17.8201" rx="1.67063" fill="#D48901"/>
    <path d="M27.5057 9.65358C27.9199 9.19883 27.8909 8.48284 27.363 8.16725C26.7441 7.79736 26.0562 7.54929 25.3364 7.44071C24.2473 7.27643 23.134 7.4388 22.1372 7.90727C21.1404 8.37574 20.3049 9.12928 19.7363 10.0726C19.1678 11.0159 18.8917 12.1066 18.9431 13.2069C18.9944 14.3071 19.3709 15.3673 20.0248 16.2536C20.6787 17.1399 21.5808 17.8123 22.6169 18.1859C23.653 18.5595 24.7766 18.6174 25.8457 18.3524C26.5523 18.1773 27.2141 17.8662 27.7958 17.4403C28.2921 17.0769 28.2542 16.3613 27.7994 15.9471V15.9471C27.3447 15.5329 26.6441 15.5873 26.1039 15.8815C25.8547 16.0172 25.588 16.1214 25.3097 16.1903C24.6683 16.3493 23.9941 16.3146 23.3725 16.0904C22.7508 15.8663 22.2096 15.4628 21.8172 14.931C21.4248 14.3993 21.199 13.7631 21.1682 13.103C21.1373 12.4429 21.303 11.7884 21.6441 11.2224C21.9852 10.6565 22.4865 10.2043 23.0846 9.92325C23.6827 9.64217 24.3507 9.54475 25.0041 9.64331C25.2877 9.68608 25.5629 9.7649 25.8236 9.87679C26.3889 10.1194 27.0915 10.1083 27.5057 9.65358V9.65358Z" fill="#D48901"/>
    <path d="M57.4543 4.95884C55.606 2.52157 52.9301 0.844566 49.9308 0.243935C46.9316 -0.356695 43.8162 0.160539 41.172 1.69814L43.6914 6.0308C45.2779 5.10823 47.1471 4.79789 48.9467 5.15827C50.7462 5.51865 52.3518 6.52485 53.4607 7.98721L57.4543 4.95884Z" fill="#D48901"/>
    <path d="M36.2836 18.1732C37.2117 20.0131 38.5793 21.5956 40.2651 22.7806C41.951 23.9656 43.9031 24.7165 45.9485 24.9668C47.9939 25.2171 50.0694 24.9591 51.9913 24.2156C53.9132 23.472 55.622 22.266 56.9664 20.7043L53.168 17.4345C52.3614 18.3715 51.3361 19.0951 50.183 19.5412C49.0298 19.9873 47.7845 20.1422 46.5573 19.992C45.33 19.8418 44.1588 19.3912 43.1473 18.6802C42.1357 17.9692 41.3152 17.0197 40.7583 15.9159L36.2836 18.1732Z" fill="#D48901"/>
    <path d="M8.27107 10.8831C8.6754 10.5893 9.24131 10.679 9.53507 11.0833V11.0833C9.82883 11.4876 9.7392 12.0535 9.33487 12.3473L6.55538 14.3667C6.15105 14.6605 5.58514 14.5708 5.29138 14.1665V14.1665C4.99762 13.7622 5.08725 13.1963 5.49158 12.9025L8.27107 10.8831Z" fill="#CC0808"/>
    <path d="M5.46696 14.3865C5.06263 14.0928 4.973 13.5268 5.26676 13.1225V13.1225C5.56052 12.7182 6.12643 12.6286 6.53076 12.9223L9.23392 14.8863C9.63825 15.18 9.72788 15.746 9.43412 16.1503V16.1503C9.14036 16.5546 8.57445 16.6442 8.17012 16.3505L5.46696 14.3865Z" fill="#00B2FF"/>
    <path d="M14.745 15.3268C14.3407 15.6206 13.7748 15.5309 13.481 15.1266V15.1266C13.1873 14.7223 13.2769 14.1564 13.6812 13.8626L16.4607 11.8432C16.8651 11.5494 17.431 11.6391 17.7247 12.0434V12.0434C18.0185 12.4477 17.9289 13.0136 17.5245 13.3074L14.745 15.3268Z" fill="#FFC500"/>
    <path d="M17.5521 11.8236C17.9564 12.1174 18.046 12.6833 17.7523 13.0876V13.0876C17.4585 13.492 16.8926 13.5816 16.4883 13.2878L13.7851 11.3239C13.3808 11.0301 13.2912 10.4642 13.5849 10.0599V10.0599C13.8787 9.65554 14.4446 9.56591 14.8489 9.85967L17.5521 11.8236Z" fill="#008000"/>
    <rect x="11.6528" y="8.46155" width="1.94906" height="9.14513" rx="0.974531" transform="rotate(14 11.6528 8.46155)" fill="#9B9B9B"/>
    </svg>
    