<svg width="100" height="52" viewBox="0 0 100 52" fill="none" xmlns="http://www.w3.org/2000/svg">
    <path d="M20.883 0C15.3445 -6.6046e-08 10.0328 2.20016 6.11648 6.11648C2.20016 10.0328 4.84192e-07 15.3445 0 20.883C-4.84192e-07 26.4215 2.20016 31.7331 6.11648 35.6494C10.0328 39.5658 15.3445 41.7659 20.883 41.7659L20.883 35.5035C17.0054 35.5035 13.2866 33.9631 10.5447 31.2212C7.80281 28.4794 6.26243 24.7606 6.26243 20.883C6.26243 17.0054 7.80281 13.2866 10.5447 10.5447C13.2866 7.8028 17.0054 6.26243 20.883 6.26243L20.883 0Z" fill="#D48901"/>
    <path d="M49.8835 24.752C50.5468 27.2774 49.7722 25.2482 51.6238 27.0318C52.0878 27.4789 51.9225 27.3067 54.4053 27.8119C56.8881 28.3171 59.458 28.0945 61.8249 27.1693C64.1919 26.2441 66.2617 24.653 67.8006 22.5758C69.3396 20.4985 70.2864 18.0177 70.5344 15.4134C70.7823 12.809 70.3213 10.1849 69.2036 7.83715C68.0859 5.48939 66.3558 3.51148 64.2088 2.12668C62.0617 0.741873 59.5831 0.00530828 57.0527 0.00012207L57.0407 6.26384C58.442 6.26671 59.8147 6.67462 61.0037 7.44153C62.1928 8.20843 63.1509 9.3038 63.7699 10.604C64.3889 11.9042 64.6441 13.3574 64.5068 14.7997C64.3695 16.242 63.8452 17.6158 62.9929 18.7662C62.1406 19.9166 60.9944 20.7977 59.6836 21.3101C58.3727 21.8225 56.9495 21.9458 55.5745 21.666C54.1996 21.3862 52.9276 20.7145 51.9022 19.7267C50.8768 18.7389 50.2509 17.4089 49.8835 16.0103V24.752Z" fill="#D48901"/>
    <path d="M20.8833 0H57.0804V6.26488H20.8833V0Z" fill="#D48901"/>
    <path d="M20.8833 0H57.0804V6.26488H20.8833V0Z" fill="#D48901"/>
    <path d="M20.8833 0H57.0804V6.26488H20.8833V0Z" fill="#D48901"/>
    <path d="M18.1968 38.6333C18.1968 36.9033 19.5992 35.5008 21.3292 35.5008H38.4996C40.2296 35.5008 41.6321 36.9033 41.6321 38.6333V38.6333C41.6321 40.3633 40.2296 41.7657 38.4996 41.7657H21.3292C19.5992 41.7657 18.1968 40.3633 18.1968 38.6333V38.6333Z" fill="#D48901"/>
    <path d="M18.1968 38.6333C18.1968 36.9033 19.5992 35.5008 21.3292 35.5008H38.4996C40.2296 35.5008 41.6321 36.9033 41.6321 38.6333V38.6333C41.6321 40.3633 40.2296 41.7657 38.4996 41.7657H21.3292C19.5992 41.7657 18.1968 40.3633 18.1968 38.6333V38.6333Z" fill="#D48901"/>
    <path d="M18.1968 38.6333C18.1968 36.9033 19.5992 35.5008 21.3292 35.5008H38.4996C40.2296 35.5008 41.6321 36.9033 41.6321 38.6333V38.6333C41.6321 40.3633 40.2296 41.7657 38.4996 41.7657H21.3292C19.5992 41.7657 18.1968 40.3633 18.1968 38.6333V38.6333Z" fill="#D48901"/>
    <rect x="49.8835" y="22.0422" width="5.56877" height="29.7002" rx="2.78438" fill="#D48901"/>
    <path d="M45.8426 16.0892C46.533 15.3313 46.4847 14.138 45.6048 13.612C44.5734 12.9955 43.4269 12.5821 42.2271 12.4011C40.412 12.1273 38.5564 12.3979 36.8951 13.1787C35.2338 13.9595 33.8413 15.2154 32.8937 16.7876C31.9461 18.3598 31.486 20.1777 31.5716 22.0113C31.6572 23.845 32.2846 25.6121 33.3745 27.0892C34.4644 28.5663 35.9678 29.6871 37.6947 30.3097C39.4215 30.9324 41.2942 31.029 43.076 30.5873C44.2537 30.2953 45.3566 29.7769 46.3261 29.067C47.1533 28.4614 47.0901 27.2688 46.3322 26.5784V26.5784C45.5743 25.8881 44.4066 25.9788 43.5063 26.4692C43.0911 26.6953 42.6465 26.8688 42.1827 26.9838C41.1137 27.2488 39.99 27.1909 38.9539 26.8173C37.9178 26.4437 37.0158 25.7712 36.3618 24.885C35.7079 23.9987 35.3315 22.9385 35.2801 21.8382C35.2287 20.738 35.5048 19.6473 36.0733 18.704C36.6419 17.7607 37.4774 17.0071 38.4742 16.5387C39.471 16.0702 40.5843 15.9078 41.6734 16.0721C42.1459 16.1434 42.6047 16.2748 43.0392 16.4612C43.9813 16.8656 45.1523 16.8471 45.8426 16.0892V16.0892Z" fill="#D48901"/>
    <path d="M95.7568 8.26473C92.6764 4.20262 88.2165 1.40761 83.2177 0.406559C78.219 -0.594492 73.0267 0.267565 68.6196 2.83023L72.8186 10.0513C75.4629 8.51372 78.5782 7.99649 81.5775 8.59712C84.5767 9.19775 87.2527 10.8748 89.1009 13.312L95.7568 8.26473Z" fill="#D48901"/>
    <path d="M60.4723 30.2887C62.0192 33.3551 64.2984 35.9926 67.1082 37.9676C69.918 39.9426 73.1715 41.1941 76.5805 41.6113C79.9895 42.0285 83.4487 41.5984 86.6518 40.3593C89.8549 39.1201 92.703 37.11 94.9436 34.5072L88.613 29.0575C87.2686 30.6192 85.5598 31.8252 83.6379 32.5687C81.7161 33.3122 79.6405 33.5703 77.5951 33.32C75.5497 33.0697 73.5976 32.3187 71.9118 31.1337C70.2259 29.9487 68.8583 28.3662 67.9302 26.5264L60.4723 30.2887Z" fill="#D48901"/>
    <path d="M13.7852 18.1384C14.4591 17.6488 15.4023 17.7982 15.8919 18.472V18.472C16.3815 19.1459 16.2321 20.0891 15.5582 20.5787L10.9257 23.9444C10.2518 24.434 9.30865 24.2846 8.81905 23.6107V23.6107C8.32945 22.9369 8.47884 21.9937 9.15271 21.5041L13.7852 18.1384Z" fill="#CC0808"/>
    <path d="M9.11127 23.9775C8.4374 23.4879 8.28801 22.5447 8.77761 21.8709V21.8709C9.26721 21.197 10.2104 21.0476 10.8843 21.5372L15.3895 24.8105C16.0634 25.3001 16.2128 26.2432 15.7232 26.9171V26.9171C15.2336 27.591 14.2904 27.7404 13.6165 27.2508L9.11127 23.9775Z" fill="#00B2FF"/>
    <path d="M24.5751 25.5447C23.9013 26.0343 22.9581 25.885 22.4685 25.2111V25.2111C21.9789 24.5372 22.1283 23.594 22.8021 23.1044L27.4346 19.7387C28.1085 19.2491 29.0517 19.3985 29.5413 20.0724V20.0724C30.0309 20.7462 29.8815 21.6894 29.2076 22.179L24.5751 25.5447Z" fill="#FFC500"/>
    <path d="M29.2535 19.7061C29.9273 20.1957 30.0767 21.1389 29.5871 21.8128V21.8128C29.0975 22.4866 28.1544 22.636 27.4805 22.1464L22.9752 18.8731C22.3013 18.3835 22.1519 17.4404 22.6415 16.7665V16.7665C23.1311 16.0926 24.0743 15.9432 24.7482 16.4328L29.2535 19.7061Z" fill="#008000"/>
    <rect x="19.4214" y="14.1026" width="3.24844" height="15.2419" rx="1.62422" transform="rotate(14 19.4214 14.1026)" fill="#9B9B9B"/>
    </svg>
    